<svg xmlns="http://www.w3.org/2000/svg" version="1.1" xmlns:xlink="http://www.w3.org/1999/xlink" xmlns:svgjs="http://svgjs.dev/svgjs" width="1500" height="1500" viewBox="0 0 1500 1500"><rect width="1500" height="1500" fill="#39cccc"></rect><g transform="matrix(0.6666666666666666,0,0,0.6666666666666666,250.78147512306208,308.0248313090418)"><svg viewBox="0 0 279 247" data-background-color="#39cccc" preserveAspectRatio="xMidYMid meet" height="1327" width="1500" xmlns="http://www.w3.org/2000/svg" xmlns:xlink="http://www.w3.org/1999/xlink"><g id="tight-bounds" transform="matrix(1,0,0,1,-0.21803155933432095,-0.09999999999999432)"><svg viewBox="0 0 279.43606311866864 247.2" height="247.2" width="279.43606311866864"><g><svg viewBox="0 0 395.52 349.892361454" height="247.2" width="279.43606311866864"><g><svg viewBox="0 0 395.52 349.892361454" height="349.892361454" width="395.52"><g id="textblocktransform"><svg viewBox="0 0 395.52 349.892361454" height="349.892361454" width="395.52" id="textblock"><g><rect width="395.52" height="234.283903" fill="none" stroke-width="9.018103199999999" stroke="#ffffff" data-fill-palette-color="none" data-stroke-palette-color="tertiary"></rect><rect width="395.52" height="115.608458454" y="234.283903" fill="#ffffff" data-fill-palette-color="tertiary"></rect></g><g><svg viewBox="0 0 395.52 234.283903" height="234.283903" width="395.52"><g transform="matrix(1,0,0,1,23.607599999999998,23.607599999999998)"><svg width="348.3048" viewBox="1.22 -30.96 58.59 31.470000000000002" height="187.068703" data-palette-color="#ffffff"><path d="M14.6 0L14.84-2.03 10.25-3.08 10.25-13.11 14.5-13.11 18.38-6.18Q20.14-3.03 22.25-1.26 24.37 0.51 27.08 0.51L27.08 0.51Q28.61 0.51 30 0.02L30 0.02 30.37-1.64 29.57-1.88Q28.1-2.32 27.05-3.09 26-3.86 25.07-4.98 24.15-6.1 22.41-8.52L22.41-8.52 18.02-14.6 18.02-14.62Q20.24-15.41 21.81-16.77 23.39-18.14 24.21-19.78 25.02-21.41 25.02-23.02L25.02-23.02Q25.02-27.08 21.81-28.83 18.6-30.59 12.77-30.59L12.77-30.59Q10.33-30.59 7.67-30.3 5-30 1.64-29.47L1.64-29.47 1.39-27.59 5.57-26.86 5.57-2.95 1.49-1.81 1.22 0 14.6 0ZM10.25-28.42Q10.47-28.44 11.29-28.49 12.11-28.54 13.18-28.54L13.18-28.54Q15.31-28.54 16.83-27.66 18.36-26.78 19.17-25.22 19.97-23.66 19.97-21.66L19.97-21.66Q19.97-19.24 18.55-17.63 17.14-16.02 15.09-15.33L15.09-15.33 10.25-15.33 10.25-28.42ZM28.98 0L40.4 0 40.67-1.95 36.13-3.03 38.6-10.55 48.83-10.55 51.49-3.15 47.31-1.81 47.02 0 59.59 0 59.81-1.95 56.47-3.03 46.95-30.96 43.26-30.2 32.83-3.15 29.2-1.81 28.98 0ZM39.52-13.04L44.06-25.24 48.12-13.04 39.52-13.04Z" opacity="1" transform="matrix(1,0,0,1,0,0)" fill="#ffffff" class="wordmark-text-0" data-fill-palette-color="primary" id="text-0"></path></svg></g></svg></g></svg></g></svg></g><g></g></svg></g><defs></defs></svg><rect width="279.43606311866864" height="247.2" fill="none" stroke="none" visibility="hidden"></rect></g></svg></g></svg>